<?xml version="1.0" encoding="UTF-8"?>
<!DOCTYPE svg PUBLIC "-//W3C//DTD SVG 1.1//EN" "http://www.w3.org/Graphics/SVG/1.1/DTD/svg11.dtd">
<!-- Creator: CorelDRAW -->
<svg xmlns="http://www.w3.org/2000/svg" xml:space="preserve" width="200px" height="200px" version="1.1" style="shape-rendering:geometricPrecision; text-rendering:geometricPrecision; image-rendering:optimizeQuality; fill-rule:evenodd; clip-rule:evenodd"
viewBox="0 0 11.171 11.171"
 xmlns:xlink="http://www.w3.org/1999/xlink"
 xmlns:xodm="http://www.corel.com/coreldraw/odm/2003">
 <defs>
  <style type="text/css">
   <![CDATA[
    .fil3 {fill:none}
    .fil1 {fill:#492F5C}
    .fil0 {fill:#500E82}
    .fil2 {fill:#760FC3}
    .fil4 {fill:#7BE6DE;fill-rule:nonzero}
   ]]>
  </style>
   <clipPath id="id0">
    <path d="M2.793 0l5.585 0c1.536,0 2.793,1.257 2.793,2.793l0 5.585c0,1.536 -1.257,2.793 -2.793,2.793l-5.585 0c-1.536,0 -2.793,-1.257 -2.793,-2.793l0 -5.585c0,-1.536 1.257,-2.793 2.793,-2.793z"/>
   </clipPath>
     <mask id="id1">
  <linearGradient id="id2" gradientUnits="userSpaceOnUse" x1="5.597" y1="13.73" x2="4.856" y2="-18.036">
   <stop offset="0" style="stop-opacity:0; stop-color:white"/>
   <stop offset="1" style="stop-opacity:1; stop-color:white"/>
  </linearGradient>
      <rect style="fill:url(#id2)" x="-3.647" y="-2.568" width="18.464" height="16.306"/>
     </mask>
 </defs>
 <g id="Layer_x0020_1">
  <metadata id="CorelCorpID_0Corel-Layer"/>
  <path class="fil0" d="M2.793 0l5.585 0c1.536,0 2.793,1.257 2.793,2.793l0 5.585c0,1.536 -1.257,2.793 -2.793,2.793l-5.585 0c-1.536,0 -2.793,-1.257 -2.793,-2.793l0 -5.585c0,-1.536 1.257,-2.793 2.793,-2.793z"/>
  <g style="clip-path:url(#id0)">
   <g id="_105553843696320">
    <rect class="fil1" x="-3.647" y="-2.568" width="18.464" height="16.306"/>
    <polygon class="fil2" style="mask:url(#id1)" points="-3.647,-2.568 14.817,-2.568 14.817,13.738 -3.647,13.738 "/>
   </g>
  </g>
  <path class="fil3" d="M2.793 0l5.585 0c1.536,0 2.793,1.257 2.793,2.793l0 5.585c0,1.536 -1.257,2.793 -2.793,2.793l-5.585 0c-1.536,0 -2.793,-1.257 -2.793,-2.793l0 -5.585c0,-1.536 1.257,-2.793 2.793,-2.793z"/>
  <path class="fil4" d="M5.294 2.485l0 -0.525 0.53 0 0 1.05 -0.438 0c-0.638,0.04 -1.212,0.319 -1.636,0.748 -0.093,0.094 -0.179,0.196 -0.256,0.303l1.661 0c0.147,0 0.266,0.119 0.266,0.265 0,0.147 -0.119,0.266 -0.266,0.266l-1.956 0c-0.126,0.305 -0.195,0.641 -0.195,0.993l0 0.267 -1.055 0 0 -0.533 0.535 0c0.063,-0.752 0.391,-1.428 0.888,-1.932 0.501,-0.507 1.174,-0.84 1.922,-0.902zm0.783 4.623c-0.146,0 -0.265,-0.118 -0.265,-0.264 0,-0.146 0.119,-0.264 0.265,-0.264l1.857 0c0.098,-0.239 0.162,-0.496 0.186,-0.765l-0.002 -0.492 1.05 -0.004 0.002 0.528 -0.522 0.002c-0.062,0.749 -0.386,1.422 -0.878,1.925 -0.504,0.516 -1.186,0.854 -1.947,0.912l0.003 0.526 -0.529 0.002 -0.005 -1.05 0.451 -0.002c0.643,-0.04 1.221,-0.323 1.648,-0.759 0.09,-0.092 0.173,-0.19 0.248,-0.295l-1.562 0zm-1.743 -1.774l2.448 0 0 0.502 -2.448 0 0 -0.502z"/>
 </g>
</svg>
